<?xml version="1.0" encoding="UTF-8"?>
<svg version="1.1" xmlns="http://www.w3.org/2000/svg" width="188" height="43">
<path d="M0 0 C5.02831439 0.42817524 9.19762417 2.25142419 13.828125 4.1796875 C14.73820312 4.54449219 15.64828125 4.90929687 16.5859375 5.28515625 C23.29664004 8.02320254 23.29664004 8.02320254 25.578125 10.3046875 C26.07833848 13.59493634 25.99474852 16.91818843 26.015625 20.2421875 C26.04849609 21.16193359 26.08136719 22.08167969 26.11523438 23.02929688 C26.12232422 23.91294922 26.12941406 24.79660156 26.13671875 25.70703125 C26.15017334 26.51648193 26.16362793 27.32593262 26.17749023 28.15991211 C25.578125 30.3046875 25.578125 30.3046875 23.40673828 31.93481445 C18.36710788 34.37546404 13.20780147 36.4624502 8.015625 38.5546875 C6.87931641 39.02648438 5.74300781 39.49828125 4.57226562 39.984375 C3.47978516 40.42523438 2.38730469 40.86609375 1.26171875 41.3203125 C0.26712646 41.72540039 -0.72746582 42.13048828 -1.75219727 42.54785156 C-4.421875 43.3046875 -4.421875 43.3046875 -8.421875 42.3046875 C-8.421875 36.3646875 -8.421875 30.4246875 -8.421875 24.3046875 C-4.791875 22.6546875 -1.161875 21.0046875 2.578125 19.3046875 C1.588125 18.6446875 0.598125 17.9846875 -0.421875 17.3046875 C-1.411875 16.6446875 -2.401875 15.9846875 -3.421875 15.3046875 C-3.75 12.08203125 -3.75 12.08203125 -3.671875 8.2421875 C-3.65640625 6.97246094 -3.6409375 5.70273438 -3.625 4.39453125 C-3.36392663 0.42320367 -3.36392663 0.42320367 0 0 Z " fill="#105CDE" transform="translate(8.421875,-0.3046875)"/>
<path d="M0 0 C1.98 0 3.96 0 6 0 C6 1.65 6 3.3 6 5 C9.63 5 13.26 5 17 5 C17.06058594 5.84304687 17.12117188 6.68609375 17.18359375 7.5546875 C17.30927734 9.19824219 17.30927734 9.19824219 17.4375 10.875 C17.51871094 11.96554688 17.59992188 13.05609375 17.68359375 14.1796875 C17.83001703 16.94728971 17.83001703 16.94728971 19 19 C20.65 19 22.3 19 24 19 C24.33 14.38 24.66 9.76 25 5 C26.98 5 28.96 5 31 5 C31 11.6 31 18.2 31 25 C17.77782558 26.48286068 17.77782558 26.48286068 14.10546875 24.203125 C11.06643824 21.02313761 10.87633562 18.53284248 10.9375 14.3125 C10.94652344 13.50425781 10.95554688 12.69601563 10.96484375 11.86328125 C10.97644531 11.24839844 10.98804688 10.63351563 11 10 C9.35 10 7.7 10 6 10 C6 13.3 6 16.6 6 20 C7.32 20 8.64 20 10 20 C10 21.65 10 23.3 10 25 C8.72125 25.061875 7.4425 25.12375 6.125 25.1875 C5.04605469 25.23970703 5.04605469 25.23970703 3.9453125 25.29296875 C3.30335937 25.19628906 2.66140625 25.09960938 2 25 C-0.35119399 21.47320901 -0.21443452 19.97120515 -0.125 15.8125 C-0.10695313 14.72582031 -0.08890625 13.63914062 -0.0703125 12.51953125 C-0.04710938 11.68808594 -0.02390625 10.85664063 0 10 C-0.66 10 -1.32 10 -2 10 C-2 8.35 -2 6.7 -2 5 C-1.34 5 -0.68 5 0 5 C0 3.35 0 1.7 0 0 Z " fill="#000544" transform="translate(120,10)"/>
<path d="M0 0 C0 1.65 0 3.3 0 5 C-0.99 5 -1.98 5 -3 5 C-3 5.99 -3 6.98 -3 8 C-0.93757383 8.02717692 1.12495703 8.0464758 3.1875 8.0625 C4.33605469 8.07410156 5.48460938 8.08570313 6.66796875 8.09765625 C9.59300586 8.01192832 12.16316291 7.67849023 15 7 C15 9.31 15 11.62 15 14 C13.35 14.33 11.7 14.66 10 15 C9.67 19.29 9.34 23.58 9 28 C7.02 28 5.04 28 3 28 C3 23.05 3 18.1 3 13 C1.02 13 -0.96 13 -3 13 C-3 17.95 -3 22.9 -3 28 C-4.98 28 -6.96 28 -9 28 C-9 23.05 -9 18.1 -9 13 C-9.99 13 -10.98 13 -12 13 C-12 11.35 -12 9.7 -12 8 C-11.01 8 -10.02 8 -9 8 C-8.87625 6.865625 -8.7525 5.73125 -8.625 4.5625 C-8.41875 3.386875 -8.2125 2.21125 -8 1 C-5.29120665 -0.35439668 -2.99066732 -0.06501451 0 0 Z " fill="#000544" transform="translate(58,7)"/>
<path d="M0 0 C4.58548066 0.36930046 8.18637956 1.94594618 12.3671875 3.78125 C13.1509375 4.11511719 13.9346875 4.44898438 14.7421875 4.79296875 C16.66297159 5.61281562 18.57816832 6.44573161 20.4921875 7.28125 C20.4921875 7.94125 20.4921875 8.60125 20.4921875 9.28125 C21.1521875 9.28125 21.8121875 9.28125 22.4921875 9.28125 C22.21313477 11.16601562 22.21313477 11.16601562 21.4921875 13.28125 C18.76491489 14.70365074 16.30359455 15.76607678 13.4296875 16.78125 C12.69041016 17.08289063 11.95113281 17.38453125 11.18945312 17.6953125 C7.85667472 18.89662895 5.59913469 19.63001102 2.14892578 18.54296875 C0.17213725 17.55653515 -1.67406614 16.51102311 -3.5078125 15.28125 C-3.53466662 12.96881208 -3.55414091 10.6562873 -3.5703125 8.34375 C-3.58191406 7.05597656 -3.59351563 5.76820312 -3.60546875 4.44140625 C-3.48028042 0.39031182 -3.48028042 0.39031182 0 0 Z " fill="#0F56DD" transform="translate(8.5078125,-0.28125)"/>
<path d="M0 0 C2.5625 1.5625 2.5625 1.5625 4 4 C4.31112695 6.75795588 4.18619486 9.20707715 4 12 C-2.435 12.495 -2.435 12.495 -9 13 C-9 13.66 -9 14.32 -9 15 C-7.02 15 -5.04 15 -3 15 C-3 14.34 -3 13.68 -3 13 C-0.69 13 1.62 13 4 13 C3.43142035 16.29776196 2.58424925 17.87179473 0 20 C-2.99296454 20.95204777 -5.86927204 21.19200376 -9 21 C-14.39759036 18.20481928 -14.39759036 18.20481928 -16 15 C-16.64507919 9.79328939 -16.9173523 6.18290165 -13.625 1.9375 C-8.89485797 -1.5537953 -5.63335527 -1.26075091 0 0 Z M-8.75 5.375 C-10.10161846 6.79041193 -10.10161846 6.79041193 -10 8 C-7.36 8 -4.72 8 -2 8 C-2.33 7.01 -2.66 6.02 -3 5 C-5.60361233 3.78498091 -6.44342112 3.56268802 -8.75 5.375 Z " fill="#000544" transform="translate(184,15)"/>
<path d="M0 0 C5.57894737 3.15789474 5.57894737 3.15789474 7 6 C7.64507919 11.20671061 7.9173523 14.81709835 4.625 19.0625 C0.47761437 22.12366559 -1.71369204 22.27283006 -6.734375 21.625 C-9 21 -9 21 -12.0625 18.4375 C-14.35684978 14.36687943 -15.1515873 11.5610111 -14 7 C-10.67812763 1.15198894 -6.60264264 -0.64731791 0 0 Z M-6 6 C-8.35014158 8.837578 -8.35014158 8.837578 -7.6875 12.125 C-7.29355679 14.88086422 -7.29355679 14.88086422 -6 16 C-3.54190002 16.2500773 -3.54190002 16.2500773 -1 16 C1.31563087 14.11499729 1.31563087 14.11499729 1.25 11 C1.31563087 7.88500271 1.31563087 7.88500271 -1 6 C-3.5 5.58333333 -3.5 5.58333333 -6 6 Z " fill="#000544" transform="translate(87,14)"/>
<path d="M0 0 C2.87081473 2.5296641 3.00197432 4.02621896 3.29296875 7.890625 C3.27314945 9.34404009 3.23754845 10.79731167 3.1875 12.25 C3.16719727 13.36761719 3.16719727 13.36761719 3.14648438 14.5078125 C3.11127204 16.33885416 3.05746851 18.16952169 3 20 C1.02 20 -0.96 20 -3 20 C-3.33 15.71 -3.66 11.42 -4 7 C-5.65 6.67 -7.3 6.34 -9 6 C-10.87824891 7.87824891 -10.39102397 11.03935276 -10.5625 13.5625 C-10.68818359 15.35880859 -10.68818359 15.35880859 -10.81640625 17.19140625 C-10.87699219 18.11824219 -10.93757813 19.04507813 -11 20 C-12.98 20 -14.96 20 -17 20 C-17 13.4 -17 6.8 -17 0 C-14.69 0 -12.38 0 -10 0 C-6.82503506 -1.58748247 -3.30053472 -1.07839253 0 0 Z " fill="#000544" transform="translate(113,15)"/>
<path d="M0 0 C0 2.31 0 4.62 0 7 C-0.639375 7.12375 -1.27875 7.2475 -1.9375 7.375 C-2.618125 7.58125 -3.29875 7.7875 -4 8 C-5.28446919 10.56893838 -5.32977144 12.76576337 -5.5625 15.625 C-5.68818359 17.12933594 -5.68818359 17.12933594 -5.81640625 18.6640625 C-5.87699219 19.43492188 -5.93757812 20.20578125 -6 21 C-7.98 21 -9.96 21 -12 21 C-12 14.4 -12 7.8 -12 1 C-9.69 1 -7.38 1 -5 1 C-2 0 -2 0 0 0 Z " fill="#000544" transform="translate(167,14)"/>
<path d="M0 0 C4.68520819 0.41832216 8.32598984 2.2347705 12.5 4.3125 C10.66567161 9.81548517 4.38933999 13.48754801 -0.5 16.3125 C-1.49 15.9825 -2.48 15.6525 -3.5 15.3125 C-3.52685412 13.00006208 -3.54632841 10.6875373 -3.5625 8.375 C-3.57410156 7.08722656 -3.58570313 5.79945312 -3.59765625 4.47265625 C-3.47285559 0.43410695 -3.47285559 0.43410695 0 0 Z " fill="#1B96EE" transform="translate(8.5,-0.3125)"/>
<path d="M0 0 C1.32 0.66 2.64 1.32 4 2 C0.44290253 6.77984973 -3.41304402 10.65067332 -9 13 C-9.99 12.67 -10.98 12.34 -12 12 C-10.84826645 9.53199953 -9.95216435 7.95216435 -8 6 C-7.01 6 -6.02 6 -5 6 C-4.731875 5.38125 -4.46375 4.7625 -4.1875 4.125 C-3 2 -3 2 0 0 Z " fill="#1576E5" transform="translate(17,3)"/>
<path d="M0 0 C0 0.66 0 1.32 0 2 C0.66 2 1.32 2 2 2 C1.90234375 3.82421875 1.90234375 3.82421875 1 6 C-1.87109375 7.51953125 -1.87109375 7.51953125 -5.4375 8.8125 C-6.61183594 9.25207031 -7.78617188 9.69164062 -8.99609375 10.14453125 C-12 11 -12 11 -14 10 C-8.25 5 -8.25 5 -6 5 C-5.71125 4.360625 -5.4225 3.72125 -5.125 3.0625 C-3.72314735 0.49243681 -2.91896073 0 0 0 Z " fill="#0A3BD5" transform="translate(29,7)"/>
<path d="M0 0 C3.0625 0.125 3.0625 0.125 5.0625 1.125 C4.0625 4.125 4.0625 4.125 2.21484375 5.29296875 C1.48394531 5.62941406 0.75304687 5.96585937 0 6.3125 C-0.73347656 6.65667969 -1.46695312 7.00085938 -2.22265625 7.35546875 C-3.07150391 7.73638672 -3.07150391 7.73638672 -3.9375 8.125 C-3.97991723 5.79205225 -3.97842937 3.45797433 -3.9375 1.125 C-2.9375 0.125 -2.9375 0.125 0 0 Z " fill="#22BEF8" transform="translate(8.9375,-0.125)"/>
<path d="M0 0 C0 3 0 3 0 3 Z M-3 3 C-2.34 3 -1.68 3 -1 3 C-1 3.66 -1 4.32 -1 5 C-2.98 5.99 -2.98 5.99 -5 7 C-4.34 5.68 -3.68 4.36 -3 3 Z M-5 7 C-6.15173355 9.46800047 -7.04783565 11.04783565 -9 13 C-10.32 13 -11.64 13 -13 13 C-11.98565881 10.46414701 -11.34981128 9.21863205 -9 7.75 C-7 7 -7 7 -5 7 Z " fill="#1264E0" transform="translate(21,4)"/>
<path d="M0 0 C0 0.66 0 1.32 0 2 C-4.41919958 5.97727962 -9.2204039 9.46989222 -14 13 C-12.45212498 9.16549144 -10.06277254 6.97444301 -7 4.25 C-6.113125 3.45078125 -5.22625 2.6515625 -4.3125 1.828125 C-2 0 -2 0 0 0 Z " fill="#0D48D9" transform="translate(27,6)"/>
<path d="M0 0 C0.33 0.66 0.66 1.32 1 2 C1.66 2 2.32 2 3 2 C2.67 3.32 2.34 4.64 2 6 C-0.64 6.66 -3.28 7.32 -6 8 C-5.67 7.34 -5.34 6.68 -5 6 C-4.34 6 -3.68 6 -3 6 C-2.690625 5.195625 -2.38125 4.39125 -2.0625 3.5625 C-1 1 -1 1 0 0 Z " fill="#082DD2" transform="translate(28,7)"/>
<path d="M0 0 C0.66 0.33 1.32 0.66 2 1 C0.68 2.32 -0.64 3.64 -2 5 C-2 2 -2 2 0 0 Z M-6 5 C-5.01 5 -4.02 5 -3 5 C-3 5.66 -3 6.32 -3 7 C-5.31 8.32 -7.62 9.64 -10 11 C-8.84826645 8.53199953 -7.95216435 6.95216435 -6 5 Z " fill="#1885E9" transform="translate(15,4)"/>
<path d="M0 0 C3.875 0.875 3.875 0.875 5 2 C5.07258946 4.18639453 5.08373783 6.37500389 5.0625 8.5625 C5.05347656 9.76003906 5.04445313 10.95757812 5.03515625 12.19140625 C5.02355469 13.11824219 5.01195312 14.04507812 5 15 C4.67 15 4.34 15 4 15 C4 11.37 4 7.74 4 4 C3.34 4 2.68 4 2 4 C2 3.01 2 2.02 2 1 C1.34 0.67 0.68 0.34 0 0 Z " fill="#1DA4F1" transform="translate(29,8)"/>
<path d="M0 0 C0.99 0 1.98 0 3 0 C2 3 2 3 0.15234375 4.16796875 C-0.57855469 4.50441406 -1.30945313 4.84085937 -2.0625 5.1875 C-2.79597656 5.53167969 -3.52945312 5.87585938 -4.28515625 6.23046875 C-5.13400391 6.61138672 -5.13400391 6.61138672 -6 7 C-5.1328125 5.046875 -5.1328125 5.046875 -4 3 C-1.875 2.25 -1.875 2.25 0 2 C0 1.34 0 0.68 0 0 Z " fill="#1FAAF3" transform="translate(11,1)"/>
</svg>
